<svg xmlns="http://www.w3.org/2000/svg" viewBox="0 0 108.75 168.37">
    <title>Ativo 5</title>
    <g id="Camada_2" data-name="Camada 2">
        <g id="Camada_1-2" data-name="Camada 1">
            <rect x="60.23" width="48.52" height="48.52" rx="8.4" style="fill:#00aeef" />
            <rect x="12.09" y="111.56" width="24.34" height="24.34" rx="3.52" style="fill:#00aeef" />
            <path d="M99.5,114.16l.62-.51s-49.21.45-48.81-24.17V58.88A10.36,10.36,0,0,0,41,48.52H10.35A10.36,10.36,0,0,0,0,58.88v30.6A10.35,10.35,0,0,0,10.35,99.83H32.8c6.61.49,20.43,4.12,21.68,25.6v6.82a10.66,10.66,0,0,0,0,2V158a10.35,10.35,0,0,0,10.35,10.36H98.39A10.36,10.36,0,0,0,108.75,158V124.45A10.35,10.35,0,0,0,99.5,114.16Z" style="fill:#00aeef" />
        </g>
    </g>
</svg>
